<svg width="37.041748" height="29.166779" viewBox="0 0 37.0417 29.1668" fill="none" xmlns="http://www.w3.org/2000/svg" xmlns:xlink="http://www.w3.org/1999/xlink">
	<desc>
			Created with Pixso.
	</desc>
	<defs>
		<filter id="filter_5_220_dd" x="0.000000" y="0.000000" width="37.041748" height="29.166779" filterUnits="userSpaceOnUse" color-interpolation-filters="sRGB">
			<feFlood flood-opacity="0" result="BackgroundImageFix"/>
			<feColorMatrix in="SourceAlpha" type="matrix" values="0 0 0 0 0 0 0 0 0 0 0 0 0 0 0 0 0 0 127 0" result="hardAlpha"/>
			<feOffset dx="0" dy="4"/>
			<feGaussianBlur stdDeviation="1.33333"/>
			<feComposite in2="hardAlpha" operator="out" k2="-1" k3="1"/>
			<feColorMatrix type="matrix" values="0 0 0 0 0 0 0 0 0 0 0 0 0 0 0 0 0 0 0.25 0"/>
			<feBlend mode="normal" in2="BackgroundImageFix" result="effect_dropShadow_1"/>
			<feBlend mode="normal" in="SourceGraphic" in2="effect_dropShadow_1" result="shape"/>
		</filter>
	</defs>
	<g filter="url(#filter_5_220_dd)">
		<path id="Vector" d="M14.96 20.89L14.95 20.89L14.92 20.87C14.77 20.79 14.62 20.71 14.48 20.62C12.7 19.56 11.04 18.32 9.52 16.92C6.84 14.42 4 10.7 4 6.12C4 2.7 6.87 9.15e-5 10.34 9.15e-5C11.3 -0.01 12.26 0.2 13.13 0.62C14 1.03 14.77 1.64 15.37 2.39C15.97 1.64 16.74 1.03 17.61 0.62C18.48 0.2 19.44 -0.01 20.4 9.15e-5C23.87 9.15e-5 26.75 2.7 26.75 6.12C26.75 10.7 23.9 14.42 21.22 16.92C19.7 18.32 18.04 19.56 16.26 20.62C16.12 20.7 15.97 20.79 15.82 20.87L15.79 20.89L15.78 20.89L15.78 20.89C15.65 20.96 15.51 20.99 15.37 20.99C15.23 20.99 15.09 20.96 14.96 20.89L14.96 20.89Z" fill="#FFFFFF" fill-opacity="1.000000" fill-rule="nonzero"/>
		<path id="offline_bolt" d="M25.26 18.96L28.45 12.73L26.25 12.73L26.25 8.7L22.95 14.93L25.26 14.93L25.26 18.96ZM25.7 21.16C24.69 21.16 23.74 20.97 22.84 20.58C21.95 20.2 21.17 19.68 20.52 19.02C19.86 18.36 19.33 17.58 18.95 16.69C18.56 15.8 18.37 14.84 18.37 13.83C18.37 12.81 18.56 11.86 18.95 10.97C19.33 10.08 19.86 9.3 20.52 8.64C21.17 7.98 21.95 7.46 22.84 7.07C23.74 6.69 24.69 6.5 25.7 6.5C26.72 6.5 27.67 6.69 28.56 7.07C29.46 7.46 30.23 7.98 30.89 8.64C31.55 9.3 32.07 10.08 32.46 10.97C32.84 11.86 33.04 12.81 33.04 13.83C33.04 14.84 32.84 15.8 32.46 16.69C32.07 17.58 31.55 18.36 30.89 19.02C30.23 19.68 29.46 20.2 28.56 20.58C27.67 20.97 26.72 21.16 25.7 21.16Z" fill="#894189" fill-opacity="1.000000" fill-rule="nonzero"/>
		<path id="offline_bolt" d="M25.64 18.5L28.54 12.83L26.54 12.83L26.54 9.16L23.54 14.83L25.64 14.83L25.64 18.5ZM26.04 20.5C25.11 20.5 24.25 20.32 23.44 19.97C22.63 19.62 21.92 19.15 21.32 18.55C20.72 17.95 20.25 17.24 19.89 16.43C19.54 15.62 19.37 14.75 19.37 13.83C19.37 12.91 19.54 12.04 19.89 11.23C20.25 10.42 20.72 9.71 21.32 9.11C21.92 8.51 22.63 8.04 23.44 7.69C24.25 7.34 25.11 7.16 26.04 7.16C26.96 7.16 27.83 7.34 28.64 7.69C29.45 8.04 30.15 8.51 30.75 9.11C31.35 9.71 31.83 10.42 32.18 11.23C32.53 12.04 32.7 12.91 32.7 13.83C32.7 14.75 32.53 15.62 32.18 16.43C31.83 17.24 31.35 17.95 30.75 18.55C30.15 19.15 29.45 19.62 28.64 19.97C27.83 20.32 26.96 20.5 26.04 20.5Z" fill="#FFFFFF" fill-opacity="1.000000" fill-rule="nonzero"/>
	</g>
</svg>
